:SAMPLES-PER-SECOND 30
:FRAME-RANGE 1-1086
:FULLY-SPECIFIED
:DEGREES
985
root  -92.6663 39.4727 -35.7235 -2.34723 4.99925 2.91022
RightUpLeg  5.41125 -7.16438 -5.03765
RightLeg  12.169 -1.14783 -0.09594
RightFoot  -13.1223 -0.0689982 1.27829
RightToes  1.21801e-010 1.2921e-014 -6.02303e-014
Spine  -8.9675 4.92001 10.0047
Spine1  11.9346 6.49525 -7.50243
HEad  26.4809 79.8564 7.58346
LeftShoulder1  -0.203849 4.05233 -21.0087
LeftArm  -1.69343 0.0801253 -54.9361
LeftForeArm  31.7453 0.272002 -12.6063
LeftHand  -0.0459426 4.76481 4.53544
RightShoulder  2.1599 4.39008 21.864
RightArm  -25.4213 4.82122 51.5038
RightForeArm  67.9027 -5.32768 3.16722
RightHand  0.0950586 -6.19143 -16.059
LeftUpLeg  -6.58562 -1.32967 -3.83724
LeftLeg  9.7629 7.7941 2.71271
LeftFoot  -0.659947 -0.0402346 0.537796
LeftToes  3.79492e-011 -8.60219e-011 1.56273e-011
986
root  -92.5637 39.4507 -35.4162 -2.30136 4.64516 3.28021
RightUpLeg  5.73019 -6.92047 -5.53526
RightLeg  12.4249 -0.917167 -0.258938
RightFoot  -13.61 -0.0612152 1.5634
RightToes  1.21801e-010 1.2921e-014 -6.02303e-014
Spine  -9.3599 5.09506 9.57831
Spine1  12.3446 6.65511 -7.49798
HEad  25.6702 80.3589 6.6632
LeftShoulder1  -0.246453 4.20655 -21.0788
LeftArm  -0.77285 -0.414735 -55.1695
LeftForeArm  31.3102 -1.39567 -12.6555
LeftHand  -0.0496583 4.60269 4.22007
RightShoulder  2.16664 4.39498 21.9385
RightArm  -27.4061 3.7848 52.1213
RightForeArm  70.4938 -5.04553 2.08043
RightHand  0.145539 -6.60367 -15.5742
LeftUpLeg  -6.19193 -1.37133 -4.37242
LeftLeg  10.041 8.23954 2.85691
LeftFoot  -1.26242 -0.0439538 0.617145
LeftToes  3.79492e-011 -8.60219e-011 1.56273e-011
987
root  -92.4511 39.4266 -35.1336 -2.26508 4.37793 3.63165
RightUpLeg  5.92544 -6.57856 -6.01345
RightLeg  12.8799 -0.893787 -0.418621
RightFoot  -14.0834 -0.0495992 1.91291
RightToes  1.21801e-010 1.2921e-014 -6.02303e-014
Spine  -9.34429 5.18266 9.26273
Spine1  12.257 6.77857 -7.79377
HEad  25.2281 80.5712 6.28979
LeftShoulder1  -0.255827 4.24401 -20.9818
LeftArm  0.524574 -0.543363 -55.3555
LeftForeArm  31.3038 -2.96792 -12.6682
LeftHand  -0.0511999 4.42386 4.31125
RightShoulder  2.14453 4.238 22.2475
RightArm  -29.392 2.14599 52.4573
RightForeArm  71.654 -4.82377 1.03895
RightHand  0.152037 -6.62326 -15.9007
LeftUpLeg  -5.82368 -1.05549 -4.83081
LeftLeg  10.2705 8.26494 2.77809
LeftFoot  -1.87962 -0.0509129 0.752453
LeftToes  3.79492e-011 -8.60219e-011 1.56273e-011
988
root  -92.3268 39.4051 -34.8703 -2.16202 4.30493 3.86273
RightUpLeg  6.14873 -6.11391 -6.29553
RightLeg  13.0833 -1.31254 -0.63755
RightFoot  -14.451 -0.0333077 2.37904
RightToes  1.21801e-010 1.2921e-014 -6.02303e-014
Spine  -9.27843 5.10357 9.03812
Spine1  11.9555 6.71658 -8.1012
HEad  25.9899 80.7327 7.20633
LeftShoulder1  -0.272535 4.31038 -20.8382
LeftArm  1.53708 -0.450654 -55.4744
LeftForeArm  31.3093 -3.99688 -12.6347
LeftHand  -0.0575227 4.48963 4.35201
RightShoulder  2.11789 4.00371 22.8251
RightArm  -31.1811 0.223864 52.4688
RightForeArm  71.6635 -4.67267 0.15343
RightHand  0.184999 -6.87059 -15.8705
LeftUpLeg  -5.54697 -0.843962 -5.22101
LeftLeg  10.4526 8.23156 2.72484
LeftFoot  -2.44402 -0.0740159 1.14111
LeftToes  3.79492e-011 -8.60219e-011 1.56273e-011
989
root  -92.1965 39.3858 -34.6291 -1.97308 4.30161 4.04486
RightUpLeg  6.21594 -5.79315 -6.59773
RightLeg  13.394 -1.61665 -0.776371
RightFoot  -14.7119 -0.0214287 2.65876
RightToes  1.21801e-010 1.2921e-014 -6.02303e-014
Spine  -9.43802 4.98148 8.62723
Spine1  11.8683 6.52862 -8.01344
HEad  25.2906 80.6915 6.50967
LeftShoulder1  -0.269596 4.30083 -20.8005
LeftArm  1.67294 -0.312021 -55.5799
LeftForeArm  31.346 -4.13919 -12.6249
LeftHand  -0.0558349 4.49948 4.65457
RightShoulder  2.06263 3.72879 23.1875
RightArm  -32.2241 -1.67913 52.3082
RightForeArm  70.6921 -4.63788 -0.273882
RightHand  0.17509 -6.7736 -16.1076
LeftUpLeg  -5.39357 -0.787348 -5.59074
LeftLeg  10.6107 8.20651 2.70302
LeftFoot  -2.9274 -0.069283 1.18215
LeftToes  3.79492e-011 -8.60219e-011 1.56273e-011
990
root  -92.0659 39.3763 -34.3998 -1.81796 4.1491 4.15149
RightUpLeg  6.2539 -5.46417 -6.87854
RightLeg  13.7063 -1.63133 -0.817638
RightFoot  -14.8835 -0.00609905 3.06358
RightToes  1.21801e-010 1.2921e-014 -6.02303e-014
Spine  -9.60898 4.85812 8.30612
Spine1  11.8846 6.33655 -7.89772
HEad  24.5045 80.8592 5.66552
LeftShoulder1  -0.284217 4.3566 -20.7536
LeftArm  1.11791 -0.113568 -55.6331
LeftForeArm  31.6175 -3.58366 -12.6593
LeftHand  -0.0533752 4.54464 4.51794
RightShoulder  2.0155 3.50535 23.4686
RightArm  -32.3323 -3.50241 52.0168
RightForeArm  69.1592 -4.72176 -0.131513
RightHand  0.178071 -6.83489 -15.7178
LeftUpLeg  -5.15498 -0.673058 -5.87987
LeftLeg  10.6215 8.33633 2.69936
LeftFoot  -3.29948 -0.0887317 1.5456
LeftToes  3.79492e-011 -8.60219e-011 1.56273e-011
991
root  -91.9266 39.3854 -34.1787 -1.62195 3.89051 4.14233
RightUpLeg  6.20557 -5.34681 -7.13197
RightLeg  13.9911 -1.29575 -0.731432
RightFoot  -14.9021 0.00918921 3.54384
RightToes  1.21801e-010 1.2921e-014 -6.02303e-014
Spine  -9.73904 4.72071 8.14681
Spine1  11.7685 6.1437 -7.81657
HEad  23.8646 80.6967 5.1075
LeftShoulder1  -0.330613 4.5256 -20.8186
LeftArm  0.374383 0.163085 -55.4515
LeftForeArm  32.3307 -2.56661 -12.7149
LeftHand  -0.0653532 4.23938 4.69221
RightShoulder  1.97977 3.30426 23.8447
RightArm  -33.7519 -4.9136 51.8997
RightForeArm  70.0183 -4.55915 -0.885908
RightHand  0.151254 -6.64515 -15.5938
LeftUpLeg  -4.96697 -0.656407 -6.06888
LeftLeg  10.5849 8.58126 2.75061
LeftFoot  -3.65109 -0.0668541 1.32243
LeftToes  3.79492e-011 -8.60219e-011 1.56273e-011
992
root  -91.7973 39.3812 -33.9855 -1.48453 3.46436 4.00964
RightUpLeg  6.15232 -5.16183 -7.25422
RightLeg  14.225 -0.902435 -0.623625
RightFoot  -14.8911 0.0194109 3.88253
RightToes  1.21801e-010 1.2921e-014 -6.02303e-014
Spine  -9.947 4.66436 8.15912
Spine1  11.9534 6.02221 -7.69402
HEad  22.637 80.6559 3.8481
LeftShoulder1  -0.319657 4.48288 -20.8739
LeftArm  -0.647556 0.600415 -55.3411
LeftForeArm  32.8703 -1.23672 -12.7125
LeftHand  -0.0541037 4.50229 4.4114
RightShoulder  1.9458 3.17284 23.9295
RightArm  -34.3943 -5.9354 51.8458
RightForeArm  70.6762 -4.47725 -1.21267
RightHand  0.153048 -6.67467 -15.4241
LeftUpLeg  -4.82672 -0.158993 -5.96517
LeftLeg  10.6483 8.6116 2.51622
LeftFoot  -4.14796 -0.0820701 1.70367
LeftToes  3.79492e-011 -8.60219e-011 1.56273e-011
993
root  -91.6798 39.3863 -33.7916 -1.3765 2.96908 3.94836
RightUpLeg  6.21551 -5.06602 -7.50632
RightLeg  14.2944 -0.298942 -0.432664
RightFoot  -14.8123 0.0220827 4.04152
RightToes  1.21801e-010 1.2921e-014 -6.02303e-014
Spine  -9.94283 4.58648 7.8995
Spine1  11.8479 5.85957 -7.57518
HEad  21.5824 80.1691 2.8337
LeftShoulder1  -0.343204 4.56783 -20.9162
LeftArm  -1.38259 1.36837 -55.1588
LeftForeArm  33.3505 0.172092 -12.7055
LeftHand  -0.053386 4.53114 4.44843
RightShoulder  1.89113 2.94721 24.1447
RightArm  -34.4046 -6.7956 51.4276
RightForeArm  71.1648 -4.46483 -1.17342
RightHand  0.166048 -6.91837 -14.1307
LeftUpLeg  -4.62316 -0.20532 -6.11776
LeftLeg  10.7469 9.01453 2.75292
LeftFoot  -4.43925 -0.0707186 1.61654
LeftToes  3.79492e-011 -8.60219e-011 1.56273e-011
994
root  -91.5681 39.3766 -33.6338 -1.20169 2.26681 3.8891
RightUpLeg  5.94082 -4.77381 -7.69703
RightLeg  14.6861 0.215673 -0.260173
RightFoot  -14.8669 0.0282054 4.18985
RightToes  1.21801e-010 1.2921e-014 -6.02303e-014
Spine  -10.0025 4.47894 7.64507
Spine1  11.7957 5.70728 -7.50095
HEad  19.3003 79.5358 0.741777
LeftShoulder1  -0.351731 4.60327 -20.8259
LeftArm  -1.99795 2.52369 -54.9126
LeftForeArm  33.5384 1.21501 -12.6497
LeftHand  -0.0479854 4.67379 4.32883
RightShoulder  1.87776 2.87373 24.2941
RightArm  -34.7834 -7.41605 51.3613
RightForeArm  71.4542 -4.42136 -1.35938
RightHand  0.1352 -6.51504 -15.6982
LeftUpLeg  -4.62352 0.202299 -6.07869
LeftLeg  10.928 9.30415 2.61902
LeftFoot  -4.87779 -0.0671137 1.7093
LeftToes  3.79492e-011 -8.60219e-011 1.56273e-011
995
root  -91.4578 39.3703 -33.4938 -1.02728 1.4683 3.88428
RightUpLeg  5.5802 -4.28985 -7.91344
RightLeg  15.1193 0.62756 -0.109447
RightFoot  -14.8971 0.0356901 4.40202
RightToes  1.21801e-010 1.2921e-014 -6.02303e-014
Spine  -10.3863 4.40775 7.30764
Spine1  12.2628 5.61562 -7.39423
HEad  17.2015 78.8758 -1.26313
LeftShoulder1  -0.314309 4.46603 -20.8024
LeftArm  -2.43866 3.60851 -54.5683
LeftForeArm  33.6278 2.29689 -12.6111
LeftHand  -0.0444227 4.76679 4.20488
RightShoulder  1.8505 2.74958 24.4729
RightArm  -34.2563 -7.20415 51.286
RightForeArm  70.6054 -4.50051 -1.09372
RightHand  0.142198 -6.55644 -15.8287
LeftUpLeg  -4.56451 0.349972 -6.19577
LeftLeg  10.9374 9.95529 2.6845
LeftFoot  -5.14053 -0.0692244 1.84999
LeftToes  3.79492e-011 -8.60219e-011 1.56273e-011
